# xmcd
#
# Track frame offsets: 
#        150
#        26673
#        55126
#        73528
#        102057
#        128202
#        151647
#        168770
#
# Disc length: 2643 seconds
#
# Revision: 0
# Processed by: cddbd v1.5.2PL0 Copyright (c) Steve Scherf et al.
# Submitted via: ExactAudioCopy v1.3
#
DISCID=580a5108
DTITLE=Marcus Malone - Marcus
DYEAR=2000
DGENRE=Blues Rock
TTITLE0=Black Magic
TTITLE1=Marcus - Salomon Ball
TTITLE2=Marcus - Kelly
TTITLE3=Marcus - Gypsy Fever
TTITLE4=Marcus - Pillow Stars
TTITLE5=Marcus - Highschool Ladies Streetcorner Babies
TTITLE6=Marcus - Dream Wheel
TTITLE7=Marcus - Rise Unto Falcon
EXTD=
EXTT0=
EXTT1=
EXTT2=
EXTT3=
EXTT4=
EXTT5=
EXTT6=
EXTT7=
PLAYORDER=
